# xmcd
#
# Track frame offsets:
# 150
# 14646
# 31642
# 48985
# 66076
# 79017
# 92435
# 104109
# 113728
# 128266
# 146178
# 161494
# 183080
# 194751
#
# Disc length: 2881 seconds
#
#
# Revision: 0
# Processed by: cddbd v1.4PL0 Copyright (c) Steve Scherf et al.
# Submitted via: FreeRIP 2.35 
#
DISCID=b50b3f0e
DTITLE=Major Fox - Algumas Coisas Boas Pra Lembrar
DYEAR=2003
DGENRE=Rock and Roll
TTITLE0=Jogo da Vida
TTITLE1=2a+
TTITLE2=Algumas Coisas Boas Pra Lembrar
TTITLE3=Versus
TTITLE4=Era! Era! Era!
TTITLE5=1000 Estrelas
TTITLE6=Quero Saber Teu Nome
TTITLE7=Carol Peladinha
TTITLE8=Bons Ventos
TTITLE9=Mundo Novo
TTITLE10=Tela de Cinema
TTITLE11=Qualquer Dia Desses
TTITLE12=Longas Tardes Frias
TTITLE13=Bons Soldados
EXTD=Ripped by Rickobrother®
EXTT0=
EXTT1=
EXTT2=
EXTT3=
EXTT4=
EXTT5=
EXTT6=
EXTT7=
EXTT8=
EXTT9=
EXTT10=
EXTT11=
EXTT12=
EXTT13=
PLAYORDER=
